<?xml version="1.0" encoding="UTF-8"?><svg xmlns="http://www.w3.org/2000/svg" xmlns:xlink="http://www.w3.org/1999/xlink" fill-opacity="1" color-rendering="auto" color-interpolation="auto" text-rendering="auto" stroke="black" stroke-linecap="square" width="746" stroke-miterlimit="10" shape-rendering="auto" stroke-opacity="1" fill="black" stroke-dasharray="none" font-weight="normal" stroke-width="1" height="333" font-family="'Dialog'" font-style="normal" stroke-linejoin="miter" font-size="12px" stroke-dashoffset="0" image-rendering="auto">
  <!--Generated by ySVG 2.5-->
  <defs id="genericDefs"/>
  <g>
    <defs id="defs1">
      <clipPath clipPathUnits="userSpaceOnUse" id="clipPath1">
        <path d="M0 0 L746 0 L746 333 L0 333 L0 0 Z"/>
      </clipPath>
      <clipPath clipPathUnits="userSpaceOnUse" id="clipPath2">
        <path d="M-421 -253 L325 -253 L325 80 L-421 80 L-421 -253 Z"/>
      </clipPath>
      <clipPath clipPathUnits="userSpaceOnUse" id="clipPath3">
        <path d="M-43.6846 -161.7388 L674.1412 41.3426 L583.4896 361.7662 L-134.3362 158.6848 L-43.6846 -161.7388 Z"/>
      </clipPath>
      <clipPath clipPathUnits="userSpaceOnUse" id="clipPath4">
        <path d="M-38.5857 -185.9107 L681.2185 10.0433 L593.7484 331.3499 L-126.0558 135.396 L-38.5857 -185.9107 Z"/>
      </clipPath>
    </defs>
    <g fill="rgb(255,204,0)" text-rendering="geometricPrecision" shape-rendering="geometricPrecision" transform="matrix(1,0,0,1,421,253)" stroke="rgb(255,204,0)">
      <rect x="-420.0645" width="80.1289" height="30" y="-90.668" clip-path="url(#clipPath2)" stroke="none"/>
    </g>
    <g text-rendering="geometricPrecision" stroke-miterlimit="1.45" shape-rendering="geometricPrecision" transform="matrix(1,0,0,1,421,253)" stroke-linecap="butt">
      <rect fill="none" x="-420.0645" width="80.1289" height="30" y="-90.668" clip-path="url(#clipPath2)"/>
      <text x="-413.0645" xml:space="preserve" y="-71.1328" clip-path="url(#clipPath2)" font-family="sans-serif" stroke="none">HTTP client</text>
    </g>
    <g fill="rgb(245,245,245)" text-rendering="geometricPrecision" shape-rendering="geometricPrecision" transform="matrix(1,0,0,1,421,253)" stroke="rgb(245,245,245)">
      <rect x="-174" y="-252.666" clip-path="url(#clipPath2)" width="498.9844" rx="4" ry="4" height="332.3301" stroke="none"/>
      <rect x="-174" y="-252.666" clip-path="url(#clipPath2)" fill="rgb(235,235,235)" width="498.9844" height="21.666" stroke="none"/>
    </g>
    <g font-size="15px" stroke-linecap="butt" transform="matrix(1,0,0,1,421,253)" text-rendering="geometricPrecision" font-family="sans-serif" shape-rendering="geometricPrecision" stroke-miterlimit="1.45">
      <text x="138.6484" xml:space="preserve" y="-236.1641" clip-path="url(#clipPath2)" stroke="none">server-side Mule runtime</text>
      <rect x="-174" y="-252.666" clip-path="url(#clipPath2)" fill="none" width="498.9844" stroke-dasharray="6,2" rx="4" ry="4" height="332.3301"/>
    </g>
    <g fill="rgb(225,225,225)" text-rendering="geometricPrecision" shape-rendering="geometricPrecision" transform="matrix(1,0,0,1,421,253)" stroke="rgb(225,225,225)">
      <rect x="90.0156" y="-141.666" clip-path="url(#clipPath2)" width="219.9688" rx="4" ry="4" height="136.666" stroke="none"/>
      <rect x="90.0156" y="-141.666" clip-path="url(#clipPath2)" fill="rgb(235,235,235)" width="219.9688" height="21.666" stroke="none"/>
    </g>
    <g font-size="15px" stroke-linecap="butt" transform="matrix(1,0,0,1,421,253)" text-rendering="geometricPrecision" font-family="sans-serif" shape-rendering="geometricPrecision" stroke-miterlimit="1.45">
      <text x="133.6313" xml:space="preserve" y="-125.1641" clip-path="url(#clipPath2)" stroke="none">Mule app deployable jar</text>
      <rect x="90.0156" y="-141.666" clip-path="url(#clipPath2)" fill="none" width="219.9688" stroke-dasharray="6,2" rx="4" ry="4" height="136.666"/>
    </g>
    <g fill="rgb(255,204,0)" text-rendering="geometricPrecision" shape-rendering="geometricPrecision" transform="matrix(1,0,0,1,421,253)" stroke="rgb(255,204,0)">
      <rect x="154.1523" width="91.6953" height="30" y="-105" clip-path="url(#clipPath2)" stroke="none"/>
    </g>
    <g text-rendering="geometricPrecision" stroke-miterlimit="1.45" shape-rendering="geometricPrecision" transform="matrix(1,0,0,1,421,253)" stroke-linecap="butt">
      <rect fill="none" x="154.1523" width="91.6953" height="30" y="-105" clip-path="url(#clipPath2)"/>
      <text x="161.1523" xml:space="preserve" y="-85.4648" clip-path="url(#clipPath2)" font-family="sans-serif" stroke="none">HTTP listener</text>
    </g>
    <g fill="rgb(255,204,0)" text-rendering="geometricPrecision" shape-rendering="geometricPrecision" transform="matrix(1,0,0,1,421,253)" stroke="rgb(255,204,0)">
      <rect x="105.0156" width="189.9688" height="30" y="-50" clip-path="url(#clipPath2)" stroke="none"/>
    </g>
    <g text-rendering="geometricPrecision" stroke-miterlimit="1.45" shape-rendering="geometricPrecision" transform="matrix(1,0,0,1,421,253)" stroke-linecap="butt">
      <rect fill="none" x="105.0156" width="189.9688" height="30" y="-50" clip-path="url(#clipPath2)"/>
      <text x="112.0156" xml:space="preserve" y="-30.4648" clip-path="url(#clipPath2)" font-family="sans-serif" stroke="none">&lt;autodiscovery apiId="42" /&gt;</text>
    </g>
    <g fill="rgb(225,225,225)" text-rendering="geometricPrecision" shape-rendering="geometricPrecision" transform="matrix(1,0,0,1,421,253)" stroke="rgb(225,225,225)">
      <rect x="-159" y="-216" clip-path="url(#clipPath2)" width="198" rx="4" ry="4" height="280.6641" stroke="none"/>
      <rect x="-159" y="-216" clip-path="url(#clipPath2)" fill="rgb(235,235,235)" width="198" height="21.666" stroke="none"/>
    </g>
    <g font-size="15px" stroke-linecap="butt" transform="matrix(1,0,0,1,421,253)" text-rendering="geometricPrecision" font-family="sans-serif" shape-rendering="geometricPrecision" stroke-miterlimit="1.45">
      <text x="-32.4043" xml:space="preserve" y="-199.498" clip-path="url(#clipPath2)" stroke="none">API Policy</text>
      <rect x="-159" y="-216" clip-path="url(#clipPath2)" fill="none" width="198" stroke-dasharray="6,2" rx="4" ry="4" height="280.6641"/>
    </g>
    <g fill="rgb(205,205,205)" text-rendering="geometricPrecision" shape-rendering="geometricPrecision" transform="matrix(1,0,0,1,421,253)" stroke="rgb(205,205,205)">
      <rect x="-141.5" y="-179.334" clip-path="url(#clipPath2)" width="163" rx="4" ry="4" height="81.666" stroke="none"/>
      <rect x="-141.5" y="-179.334" clip-path="url(#clipPath2)" fill="rgb(235,235,235)" width="163" height="21.666" stroke="none"/>
    </g>
    <g font-size="15px" stroke-linecap="butt" transform="matrix(1,0,0,1,421,253)" text-rendering="geometricPrecision" font-family="sans-serif" shape-rendering="geometricPrecision" stroke-miterlimit="1.45">
      <text x="-118.6494" xml:space="preserve" y="-162.832" clip-path="url(#clipPath2)" stroke="none">API Policy template</text>
      <rect x="-141.5" y="-179.334" clip-path="url(#clipPath2)" fill="none" width="163" stroke-dasharray="6,2" rx="4" ry="4" height="81.666"/>
    </g>
    <g fill="rgb(255,204,0)" text-rendering="geometricPrecision" shape-rendering="geometricPrecision" transform="matrix(1,0,0,1,421,253)" stroke="rgb(255,204,0)">
      <rect x="-105.5137" width="91.0273" height="30" y="-142.668" clip-path="url(#clipPath2)" stroke="none"/>
    </g>
    <g text-rendering="geometricPrecision" stroke-miterlimit="1.45" shape-rendering="geometricPrecision" transform="matrix(1,0,0,1,421,253)" stroke-linecap="butt">
      <rect fill="none" x="-105.5137" width="91.0273" height="30" y="-142.668" clip-path="url(#clipPath2)"/>
      <text x="-98.5137" xml:space="preserve" y="-123.1328" clip-path="url(#clipPath2)" font-family="sans-serif" stroke="none">template.xml</text>
      <path fill="none" d="M90.0076 -37.4181 L26.8896 -107.4037" clip-path="url(#clipPath2)"/>
      <path d="M21.5317 -113.3445 L25.8555 -101.0846 L27.5593 -106.6611 L33.2815 -107.7819 Z" clip-path="url(#clipPath2)" stroke="none"/>
      <path fill="none" d="M21.5093 -142.9411 L83.6635 -95.1027" clip-path="url(#clipPath2)"/>
      <path d="M90.0032 -90.2233 L83.5434 -101.5047 L82.8711 -95.7126 L77.4441 -93.5802 Z" clip-path="url(#clipPath2)" stroke="none"/>
      <path fill="none" d="M-149.2057 -140.9624 L-339.9355 -87.0027" clip-path="url(#clipPath2)"/>
      <path d="M-141.5079 -143.1402 L-154.4158 -144.6846 L-150.168 -140.6902 L-151.6935 -135.0623 Z" clip-path="url(#clipPath2)" stroke="none"/>
    </g>
    <g text-rendering="geometricPrecision" stroke-miterlimit="1.45" shape-rendering="geometricPrecision" font-family="sans-serif" transform="matrix(0.9622,-0.2722,0.2722,0.9622,86.0645,143.7383)" stroke-linecap="butt">
      <text x="2" xml:space="preserve" y="13.6016" clip-path="url(#clipPath3)" stroke="none">HTTP request</text>
    </g>
    <g text-rendering="geometricPrecision" stroke-miterlimit="1.45" shape-rendering="geometricPrecision" transform="matrix(1,0,0,1,421,253)" stroke-linecap="butt">
      <path fill="none" d="M-141.4874 -115.6231 L-332.1996 -63.7051" clip-path="url(#clipPath2)"/>
      <path d="M-339.9186 -61.6037 L-327.0266 -59.9313 L-331.2347 -63.9677 L-329.6534 -69.5802 Z" clip-path="url(#clipPath2)" stroke="none"/>
    </g>
    <g text-rendering="geometricPrecision" stroke-miterlimit="1.45" shape-rendering="geometricPrecision" font-family="sans-serif" transform="matrix(0.9649,-0.2627,0.2627,0.9649,86.0645,169.247)" stroke-linecap="butt">
      <text x="2" xml:space="preserve" y="13.6016" clip-path="url(#clipPath4)" stroke="none">HTTP response</text>
    </g>
    <g fill="rgb(205,205,205)" text-rendering="geometricPrecision" shape-rendering="geometricPrecision" transform="matrix(1,0,0,1,421,253)" stroke="rgb(205,205,205)">
      <rect x="-144" y="-86.666" clip-path="url(#clipPath2)" width="168" rx="4" ry="4" height="136.3301" stroke="none"/>
      <rect x="-144" y="-86.666" clip-path="url(#clipPath2)" fill="rgb(235,235,235)" width="168" height="21.666" stroke="none"/>
    </g>
    <g font-size="15px" stroke-linecap="butt" transform="matrix(1,0,0,1,421,253)" text-rendering="geometricPrecision" font-family="sans-serif" shape-rendering="geometricPrecision" stroke-miterlimit="1.45">
      <text x="-121.9136" xml:space="preserve" y="-70.1641" clip-path="url(#clipPath2)" stroke="none">API Policy definition</text>
      <rect x="-144" y="-86.666" clip-path="url(#clipPath2)" fill="none" width="168" stroke-dasharray="6,2" rx="4" ry="4" height="136.3301"/>
    </g>
    <g fill="rgb(255,204,0)" text-rendering="geometricPrecision" shape-rendering="geometricPrecision" transform="matrix(1,0,0,1,421,253)" stroke="rgb(255,204,0)">
      <rect x="-105" width="84.7051" height="84.6641" y="-50" clip-path="url(#clipPath2)" stroke="none"/>
    </g>
    <g text-rendering="geometricPrecision" stroke-miterlimit="1.45" shape-rendering="geometricPrecision" transform="matrix(1,0,0,1,421,253)" stroke-linecap="butt">
      <rect fill="none" x="-105" width="84.7051" height="84.6641" y="-50" clip-path="url(#clipPath2)"/>
      <text x="-98" xml:space="preserve" y="-31.3984" clip-path="url(#clipPath2)" font-family="sans-serif" stroke="none">"api": [</text>
      <text x="-98" xml:space="preserve" y="-17.2656" clip-path="url(#clipPath2)" font-family="sans-serif" stroke="none">   {</text>
      <text x="-98" xml:space="preserve" y="-3.1328" clip-path="url(#clipPath2)" font-family="sans-serif" stroke="none">     "id": "42"</text>
      <text x="-98" xml:space="preserve" y="11" clip-path="url(#clipPath2)" font-family="sans-serif" stroke="none">   }</text>
      <text x="-98" xml:space="preserve" y="25.1328" clip-path="url(#clipPath2)" font-family="sans-serif" stroke="none"> ]</text>
    </g>
  </g>
</svg>
