<?xml version="1.0" encoding="UTF-8"?><svg xmlns="http://www.w3.org/2000/svg" xmlns:xlink="http://www.w3.org/1999/xlink" fill-opacity="1" color-rendering="auto" color-interpolation="auto" text-rendering="auto" stroke="black" stroke-linecap="square" width="1008" stroke-miterlimit="10" shape-rendering="auto" stroke-opacity="1" fill="black" stroke-dasharray="none" font-weight="normal" stroke-width="1" height="624" font-family="'Dialog'" font-style="normal" stroke-linejoin="miter" font-size="12px" stroke-dashoffset="0" image-rendering="auto">
  <!--Generated by ySVG 2.5-->
  <defs id="genericDefs"/>
  <g>
    <defs id="defs1">
      <clipPath clipPathUnits="userSpaceOnUse" id="clipPath1">
        <path d="M0 0 L1008 0 L1008 624 L0 624 L0 0 Z"/>
      </clipPath>
      <clipPath clipPathUnits="userSpaceOnUse" id="clipPath2">
        <path d="M53 168 L1061 168 L1061 792 L53 792 L53 168 Z"/>
      </clipPath>
      <clipPath clipPathUnits="userSpaceOnUse" id="clipPath3">
        <path d="M-558.0536 -71.8943 L415.9966 -331.2977 L576.5797 271.6858 L-397.4706 531.0892 L-558.0536 -71.8943 Z"/>
      </clipPath>
      <clipPath clipPathUnits="userSpaceOnUse" id="clipPath4">
        <path d="M-384.2634 -512.069 L580.3646 -219.5679 L399.2924 377.5828 L-565.3355 85.0817 L-384.2634 -512.069 Z"/>
      </clipPath>
    </defs>
    <g fill="rgb(245,245,245)" text-rendering="geometricPrecision" shape-rendering="geometricPrecision" transform="matrix(1,0,0,1,-53,-168)" stroke="rgb(245,245,245)">
      <rect x="664.2061" y="337.3359" clip-path="url(#clipPath2)" width="396" rx="4" ry="4" height="282.6641" stroke="none"/>
    </g>
    <g fill="rgb(235,235,235)" text-rendering="geometricPrecision" shape-rendering="geometricPrecision" transform="matrix(1,0,0,1,-53,-168)" stroke="rgb(235,235,235)">
      <rect x="664.2061" width="396" height="21.666" y="337.3359" clip-path="url(#clipPath2)" stroke="none"/>
    </g>
    <g font-size="15px" stroke-linecap="butt" transform="matrix(1,0,0,1,-53,-168)" text-rendering="geometricPrecision" font-family="sans-serif" shape-rendering="geometricPrecision" stroke-miterlimit="1.45">
      <text x="873.8701" xml:space="preserve" y="353.8379" clip-path="url(#clipPath2)" stroke="none">server-side Mule runtime</text>
      <rect x="664.2061" y="337.3359" clip-path="url(#clipPath2)" fill="none" width="396" stroke-dasharray="6,2" rx="4" ry="4" height="282.6641"/>
    </g>
    <g fill="rgb(225,225,225)" text-rendering="geometricPrecision" shape-rendering="geometricPrecision" transform="matrix(1,0,0,1,-53,-168)" stroke="rgb(225,225,225)">
      <rect x="679.2061" y="374.002" clip-path="url(#clipPath2)" width="184" rx="4" ry="4" height="230.998" stroke="none"/>
      <rect x="679.2061" y="374.002" clip-path="url(#clipPath2)" fill="rgb(235,235,235)" width="184" height="21.666" stroke="none"/>
    </g>
    <g font-size="15px" stroke-linecap="butt" transform="matrix(1,0,0,1,-53,-168)" text-rendering="geometricPrecision" font-family="sans-serif" shape-rendering="geometricPrecision" stroke-miterlimit="1.45">
      <text x="728.4033" xml:space="preserve" y="390.5039" clip-path="url(#clipPath2)" stroke="none">Caching API Policy</text>
      <rect x="679.2061" y="374.002" clip-path="url(#clipPath2)" fill="none" width="184" stroke-dasharray="6,2" rx="4" ry="4" height="230.998"/>
    </g>
    <g fill="rgb(205,205,205)" text-rendering="geometricPrecision" shape-rendering="geometricPrecision" transform="matrix(1,0,0,1,-53,-168)" stroke="rgb(205,205,205)">
      <rect x="694.2061" y="410.668" clip-path="url(#clipPath2)" width="154" rx="4" ry="4" height="179.332" stroke="none"/>
      <rect x="694.2061" y="410.668" clip-path="url(#clipPath2)" fill="rgb(235,235,235)" width="154" height="39.332" stroke="none"/>
    </g>
    <g font-size="15px" stroke-linecap="butt" transform="matrix(1,0,0,1,-53,-168)" text-rendering="geometricPrecision" font-family="sans-serif" shape-rendering="geometricPrecision" stroke-miterlimit="1.45">
      <text x="716.6772" xml:space="preserve" y="427.1699" clip-path="url(#clipPath2)" stroke="none">&lt;&lt;objectstore&gt;&gt;</text>
      <text x="717.2852" xml:space="preserve" y="444.8359" clip-path="url(#clipPath2)" stroke="none">server-side cache</text>
      <rect x="694.2061" y="410.668" clip-path="url(#clipPath2)" fill="none" width="154" stroke-dasharray="6,2" rx="4" ry="4" height="179.332"/>
    </g>
    <g fill="rgb(255,204,0)" text-rendering="geometricPrecision" shape-rendering="geometricPrecision" transform="matrix(1,0,0,1,-53,-168)" stroke="rgb(255,204,0)">
      <ellipse rx="10.7939" ry="15" clip-path="url(#clipPath2)" cx="720" cy="528" stroke="none"/>
    </g>
    <g text-rendering="geometricPrecision" stroke-miterlimit="1.45" shape-rendering="geometricPrecision" transform="matrix(1,0,0,1,-53,-168)" stroke-linecap="butt">
      <ellipse rx="10.7939" fill="none" ry="15" clip-path="url(#clipPath2)" cx="720" cy="528"/>
      <text x="716.2061" xml:space="preserve" y="532.5352" clip-path="url(#clipPath2)" font-family="sans-serif" stroke="none">1</text>
    </g>
    <g fill="rgb(255,204,0)" text-rendering="geometricPrecision" shape-rendering="geometricPrecision" transform="matrix(1,0,0,1,-53,-168)" stroke="rgb(255,204,0)">
      <ellipse rx="10.7939" ry="15" clip-path="url(#clipPath2)" cx="750" cy="480" stroke="none"/>
    </g>
    <g text-rendering="geometricPrecision" stroke-miterlimit="1.45" shape-rendering="geometricPrecision" transform="matrix(1,0,0,1,-53,-168)" stroke-linecap="butt">
      <ellipse rx="10.7939" fill="none" ry="15" clip-path="url(#clipPath2)" cx="750" cy="480"/>
      <text x="746.2061" xml:space="preserve" y="484.5352" clip-path="url(#clipPath2)" font-family="sans-serif" stroke="none">2</text>
    </g>
    <g fill="rgb(255,204,0)" text-rendering="geometricPrecision" shape-rendering="geometricPrecision" transform="matrix(1,0,0,1,-53,-168)" stroke="rgb(255,204,0)">
      <ellipse rx="10.7939" ry="15" clip-path="url(#clipPath2)" cx="776" cy="560" stroke="none"/>
    </g>
    <g text-rendering="geometricPrecision" stroke-miterlimit="1.45" shape-rendering="geometricPrecision" transform="matrix(1,0,0,1,-53,-168)" stroke-linecap="butt">
      <ellipse rx="10.7939" fill="none" ry="15" clip-path="url(#clipPath2)" cx="776" cy="560"/>
      <text x="772.2061" xml:space="preserve" y="564.5352" clip-path="url(#clipPath2)" font-family="sans-serif" stroke="none">3</text>
    </g>
    <g fill="rgb(255,204,0)" text-rendering="geometricPrecision" shape-rendering="geometricPrecision" transform="matrix(1,0,0,1,-53,-168)" stroke="rgb(255,204,0)">
      <ellipse rx="10.7939" ry="15" clip-path="url(#clipPath2)" cx="801" cy="521" stroke="none"/>
    </g>
    <g text-rendering="geometricPrecision" stroke-miterlimit="1.45" shape-rendering="geometricPrecision" transform="matrix(1,0,0,1,-53,-168)" stroke-linecap="butt">
      <ellipse rx="10.7939" fill="none" ry="15" clip-path="url(#clipPath2)" cx="801" cy="521"/>
      <text x="797.2061" xml:space="preserve" y="525.5352" clip-path="url(#clipPath2)" font-family="sans-serif" stroke="none">4</text>
    </g>
    <g fill="rgb(255,204,0)" text-rendering="geometricPrecision" shape-rendering="geometricPrecision" transform="matrix(1,0,0,1,-53,-168)" stroke="rgb(255,204,0)">
      <ellipse rx="10.7939" ry="15" clip-path="url(#clipPath2)" cx="764" cy="516" stroke="none"/>
    </g>
    <g text-rendering="geometricPrecision" stroke-miterlimit="1.45" shape-rendering="geometricPrecision" transform="matrix(1,0,0,1,-53,-168)" stroke-linecap="butt">
      <ellipse rx="10.7939" fill="none" ry="15" clip-path="url(#clipPath2)" cx="764" cy="516"/>
      <text x="760.2061" xml:space="preserve" y="520.5352" clip-path="url(#clipPath2)" font-family="sans-serif" stroke="none">5</text>
    </g>
    <g fill="rgb(225,225,225)" text-rendering="geometricPrecision" shape-rendering="geometricPrecision" transform="matrix(1,0,0,1,-53,-168)" stroke="rgb(225,225,225)">
      <rect x="878.2061" y="410.668" clip-path="url(#clipPath2)" width="167" rx="4" ry="4" height="99.332" stroke="none"/>
      <rect x="878.2061" y="410.668" clip-path="url(#clipPath2)" fill="rgb(235,235,235)" width="167" height="39.332" stroke="none"/>
    </g>
    <g font-size="15px" stroke-linecap="butt" transform="matrix(1,0,0,1,-53,-168)" text-rendering="geometricPrecision" font-family="sans-serif" shape-rendering="geometricPrecision" stroke-miterlimit="1.45">
      <text x="928.6772" xml:space="preserve" y="427.1699" clip-path="url(#clipPath2)" stroke="none">&lt;&lt;Mule app&gt;&gt;</text>
      <text x="900.9917" xml:space="preserve" y="444.8359" clip-path="url(#clipPath2)" stroke="none">API implementation</text>
      <rect x="878.2061" y="410.668" clip-path="url(#clipPath2)" fill="none" width="167" stroke-dasharray="6,2" rx="4" ry="4" height="99.332"/>
    </g>
    <g fill="rgb(255,204,0)" text-rendering="geometricPrecision" shape-rendering="geometricPrecision" transform="matrix(1,0,0,1,-53,-168)" stroke="rgb(255,204,0)">
      <rect x="893.2061" width="91.6953" height="30" y="465" clip-path="url(#clipPath2)" stroke="none"/>
    </g>
    <g text-rendering="geometricPrecision" stroke-miterlimit="1.45" shape-rendering="geometricPrecision" transform="matrix(1,0,0,1,-53,-168)" stroke-linecap="butt">
      <rect fill="none" x="893.2061" width="91.6953" height="30" y="465" clip-path="url(#clipPath2)"/>
      <text x="900.2061" xml:space="preserve" y="484.5352" clip-path="url(#clipPath2)" font-family="sans-serif" stroke="none">HTTP listener</text>
    </g>
    <g fill="rgb(245,245,245)" text-rendering="geometricPrecision" shape-rendering="geometricPrecision" transform="matrix(1,0,0,1,-53,-168)" stroke="rgb(245,245,245)">
      <rect x="53.6182" y="168.8359" clip-path="url(#clipPath2)" width="353" rx="4" ry="4" height="261.3301" stroke="none"/>
      <rect x="53.6182" y="168.8359" clip-path="url(#clipPath2)" fill="rgb(235,235,235)" width="353" height="21.666" stroke="none"/>
    </g>
    <g font-size="15px" stroke-linecap="butt" transform="matrix(1,0,0,1,-53,-168)" text-rendering="geometricPrecision" font-family="sans-serif" shape-rendering="geometricPrecision" stroke-miterlimit="1.45">
      <text x="225.0503" xml:space="preserve" y="185.3379" clip-path="url(#clipPath2)" stroke="none">client-side Mule runtime</text>
      <rect x="53.6182" y="168.8359" clip-path="url(#clipPath2)" fill="none" width="353" stroke-dasharray="6,2" rx="4" ry="4" height="261.3301"/>
    </g>
    <g fill="rgb(225,225,225)" text-rendering="geometricPrecision" shape-rendering="geometricPrecision" transform="matrix(1,0,0,1,-53,-168)" stroke="rgb(225,225,225)">
      <rect x="68.6182" y="205.502" clip-path="url(#clipPath2)" width="323" rx="4" ry="4" height="209.6641" stroke="none"/>
      <rect x="68.6182" y="205.502" clip-path="url(#clipPath2)" fill="rgb(235,235,235)" width="323" height="39.332" stroke="none"/>
    </g>
    <g font-size="15px" stroke-linecap="butt" transform="matrix(1,0,0,1,-53,-168)" text-rendering="geometricPrecision" font-family="sans-serif" shape-rendering="geometricPrecision" stroke-miterlimit="1.45">
      <text x="275.0894" xml:space="preserve" y="222.0039" clip-path="url(#clipPath2)" stroke="none">&lt;&lt;Mule app&gt;&gt;</text>
      <text x="308.0483" xml:space="preserve" y="239.6699" clip-path="url(#clipPath2)" stroke="none">API client 1</text>
      <rect x="68.6182" y="205.502" clip-path="url(#clipPath2)" fill="none" width="323" stroke-dasharray="6,2" rx="4" ry="4" height="209.6641"/>
      <path fill="none" d="M391.6509 353.3524 L656.4483 423.8718" clip-path="url(#clipPath2)"/>
      <path d="M664.1788 425.9305 L653.8697 418.0108 L655.4819 423.6144 L651.2963 427.674 Z" stroke="none" clip-path="url(#clipPath2)"/>
    </g>
    <g text-rendering="geometricPrecision" stroke-miterlimit="1.45" shape-rendering="geometricPrecision" font-family="sans-serif" transform="matrix(0.9663,0.2573,-0.2573,0.9663,520.7566,213.085)" stroke-linecap="butt">
      <text x="2" xml:space="preserve" y="13.6016" clip-path="url(#clipPath3)" stroke="none">HTTP requests</text>
    </g>
    <g fill="rgb(205,205,205)" text-rendering="geometricPrecision" shape-rendering="geometricPrecision" transform="matrix(1,0,0,1,-53,-168)" stroke="rgb(205,205,205)">
      <rect x="222.6182" y="259.834" clip-path="url(#clipPath2)" width="154" rx="4" ry="4" height="140.332" stroke="none"/>
      <rect x="222.6182" y="259.834" clip-path="url(#clipPath2)" fill="rgb(235,235,235)" width="154" height="39.332" stroke="none"/>
    </g>
    <g font-size="15px" stroke-linecap="butt" transform="matrix(1,0,0,1,-53,-168)" text-rendering="geometricPrecision" font-family="sans-serif" shape-rendering="geometricPrecision" stroke-miterlimit="1.45">
      <text x="245.0894" xml:space="preserve" y="276.3359" clip-path="url(#clipPath2)" stroke="none">&lt;&lt;objectstore&gt;&gt;</text>
      <text x="250.4653" xml:space="preserve" y="294.002" clip-path="url(#clipPath2)" stroke="none">client-side cache</text>
      <rect x="222.6182" y="259.834" clip-path="url(#clipPath2)" fill="none" width="154" stroke-dasharray="6,2" rx="4" ry="4" height="140.332"/>
    </g>
    <g fill="rgb(255,204,0)" text-rendering="geometricPrecision" shape-rendering="geometricPrecision" transform="matrix(1,0,0,1,-53,-168)" stroke="rgb(255,204,0)">
      <ellipse rx="10.7939" ry="15" clip-path="url(#clipPath2)" cx="248.4121" cy="329.166" stroke="none"/>
    </g>
    <g text-rendering="geometricPrecision" stroke-miterlimit="1.45" shape-rendering="geometricPrecision" transform="matrix(1,0,0,1,-53,-168)" stroke-linecap="butt">
      <ellipse rx="10.7939" fill="none" ry="15" clip-path="url(#clipPath2)" cx="248.4121" cy="329.166"/>
      <text x="244.6182" xml:space="preserve" y="333.7012" clip-path="url(#clipPath2)" font-family="sans-serif" stroke="none">2</text>
    </g>
    <g fill="rgb(255,204,0)" text-rendering="geometricPrecision" shape-rendering="geometricPrecision" transform="matrix(1,0,0,1,-53,-168)" stroke="rgb(255,204,0)">
      <ellipse rx="10.7939" ry="15" clip-path="url(#clipPath2)" cx="299.4121" cy="370.166" stroke="none"/>
    </g>
    <g text-rendering="geometricPrecision" stroke-miterlimit="1.45" shape-rendering="geometricPrecision" transform="matrix(1,0,0,1,-53,-168)" stroke-linecap="butt">
      <ellipse rx="10.7939" fill="none" ry="15" clip-path="url(#clipPath2)" cx="299.4121" cy="370.166"/>
      <text x="295.6182" xml:space="preserve" y="374.7012" clip-path="url(#clipPath2)" font-family="sans-serif" stroke="none">4</text>
    </g>
    <g fill="rgb(255,204,0)" text-rendering="geometricPrecision" shape-rendering="geometricPrecision" transform="matrix(1,0,0,1,-53,-168)" stroke="rgb(255,204,0)">
      <ellipse rx="10.7939" ry="15" clip-path="url(#clipPath2)" cx="262.4121" cy="365.166" stroke="none"/>
    </g>
    <g text-rendering="geometricPrecision" stroke-miterlimit="1.45" shape-rendering="geometricPrecision" transform="matrix(1,0,0,1,-53,-168)" stroke-linecap="butt">
      <ellipse rx="10.7939" fill="none" ry="15" clip-path="url(#clipPath2)" cx="262.4121" cy="365.166"/>
      <text x="258.6182" xml:space="preserve" y="369.7012" clip-path="url(#clipPath2)" font-family="sans-serif" stroke="none">5</text>
    </g>
    <g fill="rgb(255,204,0)" text-rendering="geometricPrecision" shape-rendering="geometricPrecision" transform="matrix(1,0,0,1,-53,-168)" stroke="rgb(255,204,0)">
      <rect x="83.6182" width="104.5918" height="30" y="315" clip-path="url(#clipPath2)" stroke="none"/>
    </g>
    <g text-rendering="geometricPrecision" stroke-miterlimit="1.45" shape-rendering="geometricPrecision" transform="matrix(1,0,0,1,-53,-168)" stroke-linecap="butt">
      <rect fill="none" x="83.6182" width="104.5918" height="30" y="315" clip-path="url(#clipPath2)"/>
      <text x="90.6182" xml:space="preserve" y="334.5352" clip-path="url(#clipPath2)" font-family="sans-serif" stroke="none">HTTP requestor</text>
    </g>
    <g fill="rgb(245,245,245)" text-rendering="geometricPrecision" shape-rendering="geometricPrecision" transform="matrix(1,0,0,1,-53,-168)" stroke="rgb(245,245,245)">
      <rect x="53.6182" y="527.3359" clip-path="url(#clipPath2)" width="353" rx="4" ry="4" height="264.3301" stroke="none"/>
      <rect x="53.6182" y="527.3359" clip-path="url(#clipPath2)" fill="rgb(235,235,235)" width="353" height="21.666" stroke="none"/>
    </g>
    <g font-size="15px" stroke-linecap="butt" transform="matrix(1,0,0,1,-53,-168)" text-rendering="geometricPrecision" font-family="sans-serif" shape-rendering="geometricPrecision" stroke-miterlimit="1.45">
      <text x="225.0503" xml:space="preserve" y="543.8379" clip-path="url(#clipPath2)" stroke="none">client-side Mule runtime</text>
      <rect x="53.6182" y="527.3359" clip-path="url(#clipPath2)" fill="none" width="353" stroke-dasharray="6,2" rx="4" ry="4" height="264.3301"/>
    </g>
    <g fill="rgb(225,225,225)" text-rendering="geometricPrecision" shape-rendering="geometricPrecision" transform="matrix(1,0,0,1,-53,-168)" stroke="rgb(225,225,225)">
      <rect x="68.6182" y="564.002" clip-path="url(#clipPath2)" width="323" rx="4" ry="4" height="212.6641" stroke="none"/>
      <rect x="68.6182" y="564.002" clip-path="url(#clipPath2)" fill="rgb(235,235,235)" width="323" height="39.332" stroke="none"/>
    </g>
    <g font-size="15px" stroke-linecap="butt" transform="matrix(1,0,0,1,-53,-168)" text-rendering="geometricPrecision" font-family="sans-serif" shape-rendering="geometricPrecision" stroke-miterlimit="1.45">
      <text x="275.0894" xml:space="preserve" y="580.5039" clip-path="url(#clipPath2)" stroke="none">&lt;&lt;Mule app&gt;&gt;</text>
      <text x="308.0483" xml:space="preserve" y="598.1699" clip-path="url(#clipPath2)" stroke="none">API client 2</text>
      <rect x="68.6182" y="564.002" clip-path="url(#clipPath2)" fill="none" width="323" stroke-dasharray="6,2" rx="4" ry="4" height="212.6641"/>
      <path fill="none" d="M391.6509 621.3529 L656.5231 541.0366" clip-path="url(#clipPath2)"/>
      <path d="M664.1788 538.7151 L651.2443 537.4124 L655.5661 541.3267 L654.1461 546.9821 Z" stroke="none" clip-path="url(#clipPath2)"/>
    </g>
    <g text-rendering="geometricPrecision" stroke-miterlimit="1.45" shape-rendering="geometricPrecision" font-family="sans-serif" transform="matrix(0.957,-0.2902,0.2902,0.957,516.3214,378.5304)" stroke-linecap="butt">
      <text x="2" xml:space="preserve" y="13.6016" clip-path="url(#clipPath4)" stroke="none">HTTP requests</text>
    </g>
    <g fill="rgb(205,205,205)" text-rendering="geometricPrecision" shape-rendering="geometricPrecision" transform="matrix(1,0,0,1,-53,-168)" stroke="rgb(205,205,205)">
      <rect x="222.6182" y="618.334" clip-path="url(#clipPath2)" width="154" rx="4" ry="4" height="143.332" stroke="none"/>
      <rect x="222.6182" y="618.334" clip-path="url(#clipPath2)" fill="rgb(235,235,235)" width="154" height="39.332" stroke="none"/>
    </g>
    <g font-size="15px" stroke-linecap="butt" transform="matrix(1,0,0,1,-53,-168)" text-rendering="geometricPrecision" font-family="sans-serif" shape-rendering="geometricPrecision" stroke-miterlimit="1.45">
      <text x="245.0894" xml:space="preserve" y="634.8359" clip-path="url(#clipPath2)" stroke="none">&lt;&lt;objectstore&gt;&gt;</text>
      <text x="250.4653" xml:space="preserve" y="652.502" clip-path="url(#clipPath2)" stroke="none">client-side cache</text>
      <rect x="222.6182" y="618.334" clip-path="url(#clipPath2)" fill="none" width="154" stroke-dasharray="6,2" rx="4" ry="4" height="143.332"/>
    </g>
    <g fill="rgb(255,204,0)" text-rendering="geometricPrecision" shape-rendering="geometricPrecision" transform="matrix(1,0,0,1,-53,-168)" stroke="rgb(255,204,0)">
      <ellipse rx="10.7939" ry="15" clip-path="url(#clipPath2)" cx="248.4121" cy="699.666" stroke="none"/>
    </g>
    <g text-rendering="geometricPrecision" stroke-miterlimit="1.45" shape-rendering="geometricPrecision" transform="matrix(1,0,0,1,-53,-168)" stroke-linecap="butt">
      <ellipse rx="10.7939" fill="none" ry="15" clip-path="url(#clipPath2)" cx="248.4121" cy="699.666"/>
      <text x="244.6182" xml:space="preserve" y="704.2012" clip-path="url(#clipPath2)" font-family="sans-serif" stroke="none">1</text>
    </g>
    <g fill="rgb(255,204,0)" text-rendering="geometricPrecision" shape-rendering="geometricPrecision" transform="matrix(1,0,0,1,-53,-168)" stroke="rgb(255,204,0)">
      <ellipse rx="10.7939" ry="15" clip-path="url(#clipPath2)" cx="304.4121" cy="731.666" stroke="none"/>
    </g>
    <g text-rendering="geometricPrecision" stroke-miterlimit="1.45" shape-rendering="geometricPrecision" transform="matrix(1,0,0,1,-53,-168)" stroke-linecap="butt">
      <ellipse rx="10.7939" fill="none" ry="15" clip-path="url(#clipPath2)" cx="304.4121" cy="731.666"/>
      <text x="300.6182" xml:space="preserve" y="736.2012" clip-path="url(#clipPath2)" font-family="sans-serif" stroke="none">3</text>
    </g>
    <g fill="rgb(255,204,0)" text-rendering="geometricPrecision" shape-rendering="geometricPrecision" transform="matrix(1,0,0,1,-53,-168)" stroke="rgb(255,204,0)">
      <ellipse rx="10.7939" ry="15" clip-path="url(#clipPath2)" cx="292.4121" cy="687.666" stroke="none"/>
    </g>
    <g text-rendering="geometricPrecision" stroke-miterlimit="1.45" shape-rendering="geometricPrecision" transform="matrix(1,0,0,1,-53,-168)" stroke-linecap="butt">
      <ellipse rx="10.7939" fill="none" ry="15" clip-path="url(#clipPath2)" cx="292.4121" cy="687.666"/>
      <text x="288.6182" xml:space="preserve" y="692.2012" clip-path="url(#clipPath2)" font-family="sans-serif" stroke="none">5</text>
    </g>
    <g fill="rgb(255,204,0)" text-rendering="geometricPrecision" shape-rendering="geometricPrecision" transform="matrix(1,0,0,1,-53,-168)" stroke="rgb(255,204,0)">
      <rect x="83.6182" width="104.5918" height="30" y="672.666" clip-path="url(#clipPath2)" stroke="none"/>
    </g>
    <g text-rendering="geometricPrecision" stroke-miterlimit="1.45" shape-rendering="geometricPrecision" transform="matrix(1,0,0,1,-53,-168)" stroke-linecap="butt">
      <rect fill="none" x="83.6182" width="104.5918" height="30" y="672.666" clip-path="url(#clipPath2)"/>
      <text x="90.6182" xml:space="preserve" y="692.2012" clip-path="url(#clipPath2)" font-family="sans-serif" stroke="none">HTTP requestor</text>
    </g>
  </g>
</svg>
