<?xml version="1.0" encoding="UTF-8"?><svg xmlns="http://www.w3.org/2000/svg" xmlns:xlink="http://www.w3.org/1999/xlink" fill-opacity="1" color-rendering="auto" color-interpolation="auto" text-rendering="auto" stroke="black" stroke-linecap="square" width="552" stroke-miterlimit="10" shape-rendering="auto" stroke-opacity="1" fill="black" stroke-dasharray="none" font-weight="normal" stroke-width="1" height="188" font-family="'Dialog'" font-style="normal" stroke-linejoin="miter" font-size="12px" stroke-dashoffset="0" image-rendering="auto">
  <!--Generated by ySVG 2.5-->
  <defs id="genericDefs"/>
  <g>
    <defs id="defs1">
      <clipPath clipPathUnits="userSpaceOnUse" id="clipPath1">
        <path d="M0 0 L552 0 L552 188 L0 188 L0 0 Z"/>
      </clipPath>
      <clipPath clipPathUnits="userSpaceOnUse" id="clipPath2">
        <path d="M38 -56 L590 -56 L590 132 L38 132 L38 -56 Z"/>
      </clipPath>
    </defs>
    <g fill="rgb(245,245,245)" text-rendering="geometricPrecision" shape-rendering="geometricPrecision" transform="matrix(1,0,0,1,-38,56)" stroke="rgb(245,245,245)">
      <rect x="38" y="-55.2979" clip-path="url(#clipPath2)" width="284" rx="4" ry="4" height="187.2637" stroke="none"/>
    </g>
    <g fill="rgb(235,235,235)" text-rendering="geometricPrecision" shape-rendering="geometricPrecision" transform="matrix(1,0,0,1,-38,56)" stroke="rgb(235,235,235)">
      <rect x="38" width="284" height="21.666" y="-55.2979" clip-path="url(#clipPath2)" stroke="none"/>
    </g>
    <g font-size="15px" stroke-linecap="butt" transform="matrix(1,0,0,1,-38,56)" text-rendering="geometricPrecision" font-family="sans-serif" shape-rendering="geometricPrecision" stroke-miterlimit="1.45">
      <text x="140.4321" xml:space="preserve" y="-38.7959" clip-path="url(#clipPath2)" stroke="none">client-side Mule runtime</text>
      <rect x="38" y="-55.2979" clip-path="url(#clipPath2)" fill="none" width="284" stroke-dasharray="6,2" rx="4" ry="4" height="187.2637"/>
    </g>
    <g fill="rgb(225,225,225)" text-rendering="geometricPrecision" shape-rendering="geometricPrecision" transform="matrix(1,0,0,1,-38,56)" stroke="rgb(225,225,225)">
      <rect x="53" y="-18.6318" clip-path="url(#clipPath2)" width="254" rx="4" ry="4" height="135.5977" stroke="none"/>
      <rect x="53" y="-18.6318" clip-path="url(#clipPath2)" fill="rgb(235,235,235)" width="254" height="21.666" stroke="none"/>
    </g>
    <g font-size="15px" stroke-linecap="butt" transform="matrix(1,0,0,1,-38,56)" text-rendering="geometricPrecision" font-family="sans-serif" shape-rendering="geometricPrecision" stroke-miterlimit="1.45">
      <text x="200.6958" xml:space="preserve" y="-2.1299" clip-path="url(#clipPath2)" stroke="none">check-in-papi</text>
      <rect x="53" y="-18.6318" clip-path="url(#clipPath2)" fill="none" width="254" stroke-dasharray="6,2" rx="4" ry="4" height="135.5977"/>
    </g>
    <g fill="rgb(205,205,205)" text-rendering="geometricPrecision" shape-rendering="geometricPrecision" transform="matrix(1,0,0,1,-38,56)" stroke="rgb(205,205,205)">
      <rect x="68" y="18.0342" clip-path="url(#clipPath2)" width="224" rx="4" ry="4" height="83.9316" stroke="none"/>
      <rect x="68" y="18.0342" clip-path="url(#clipPath2)" fill="rgb(235,235,235)" width="224" height="21.666" stroke="none"/>
    </g>
    <g font-size="15px" stroke-linecap="butt" transform="matrix(1,0,0,1,-38,56)" text-rendering="geometricPrecision" font-family="sans-serif" shape-rendering="geometricPrecision" stroke-miterlimit="1.45">
      <text x="90.5688" xml:space="preserve" y="34.5361" clip-path="url(#clipPath2)" stroke="none">Resilience XML SDK Module</text>
      <rect x="68" y="18.0342" clip-path="url(#clipPath2)" fill="none" width="224" stroke-dasharray="6,2" rx="4" ry="4" height="83.9316"/>
    </g>
    <g fill="rgb(255,204,0)" text-rendering="geometricPrecision" shape-rendering="geometricPrecision" transform="matrix(1,0,0,1,-38,56)" stroke="rgb(255,204,0)">
      <rect x="130" width="108.0781" height="30" y="55.833" clip-path="url(#clipPath2)" stroke="none"/>
    </g>
    <g text-rendering="geometricPrecision" stroke-miterlimit="1.45" shape-rendering="geometricPrecision" transform="matrix(1,0,0,1,-38,56)" stroke-linecap="butt">
      <rect fill="none" x="130" width="108.0781" height="30" y="55.833" clip-path="url(#clipPath2)"/>
      <text x="137" xml:space="preserve" y="68.3018" clip-path="url(#clipPath2)" font-family="sans-serif" stroke="none">&lt;&lt;operation&gt;&gt;</text>
      <text x="154.9473" xml:space="preserve" y="82.4346" clip-path="url(#clipPath2)" font-family="sans-serif" stroke="none">retry-http</text>
    </g>
    <g fill="rgb(255,204,0)" text-rendering="geometricPrecision" shape-rendering="geometricPrecision" transform="matrix(1,0,0,1,-38,56)" stroke="rgb(255,204,0)">
      <rect x="490.6514" width="98.6973" height="30" y="55.833" clip-path="url(#clipPath2)" stroke="none"/>
    </g>
    <g text-rendering="geometricPrecision" stroke-miterlimit="1.45" shape-rendering="geometricPrecision" transform="matrix(1,0,0,1,-38,56)" stroke-linecap="butt">
      <rect fill="none" x="490.6514" width="98.6973" height="30" y="55.833" clip-path="url(#clipPath2)"/>
      <text x="497.6514" xml:space="preserve" y="75.3682" clip-path="url(#clipPath2)" font-family="sans-serif" stroke="none">HTTP resource</text>
      <path fill="none" d="M238.0781 70.833 L482.6514 70.833" clip-path="url(#clipPath2)"/>
      <path d="M490.6514 70.833 L478.6514 65.833 L481.6514 70.833 L478.6514 75.833 Z" clip-path="url(#clipPath2)" stroke="none"/>
      <text x="325.2095" xml:space="preserve" y="64.3018" clip-path="url(#clipPath2)" font-family="sans-serif" stroke="none">HTTP request</text>
    </g>
  </g>
</svg>
